<?xml version="1.0"?>
<svg width="250mm" height="200mm" viewBox="0 0   2500    1880"
     xmlns="http://www.w3.org/2000/svg"
     xmlns:xlink="http://www.w3.org/1999/xlink"
     xmlns:ev="http://www.w3.org/2001/xml-events">
<g font-family="Verdana" font-size="8" >
  <line x1="   300" y1="   990" x2="   300" y2="  1070" style = "stroke:silver  ;"/>
  <line x1="   300" y1="   990" x2="   300" y2="  1150" style = "stroke:silver  ;"/>
  <line x1="   300" y1="   990" x2="   300" y2="  1230" style = "stroke:silver  ;"/>
  <line x1="   300" y1="   990" x2="   300" y2="  1310" style = "stroke:silver  ;"/>
  <line x1="   300" y1="   990" x2="   300" y2="  1390" style = "stroke:silver  ;"/>
  <line x1="   300" y1="   990" x2="   300" y2="  1470" style = "stroke:silver  ;"/>
  <line x1="   300" y1="   990" x2="   300" y2="  1550" style = "stroke:silver  ;"/>
  <line x1="   300" y1="   990" x2="   300" y2="  1630" style = "stroke:silver  ;"/>
  <line x1="   300" y1="   990" x2="   300" y2="  1710" style = "stroke:silver  ;"/>
  <line x1="   300" y1="   990" x2="   300" y2="  1790" style = "stroke:silver  ;"/>
  <line x1="   300" y1="   990" x2="   300" y2="  1870" style = "stroke:silver  ;"/>
  <line x1="   300" y1="  1070" x2="   300" y2="  1150" style = "stroke:silver  ;"/>
  <line x1="   300" y1="  1070" x2="   300" y2="  1230" style = "stroke:silver  ;"/>
  <line x1="   300" y1="  1070" x2="   300" y2="  1310" style = "stroke:silver  ;"/>
  <line x1="   300" y1="  1070" x2="   300" y2="  1390" style = "stroke:silver  ;"/>
  <line x1="   300" y1="  1070" x2="   300" y2="  1470" style = "stroke:silver  ;"/>
  <line x1="   300" y1="  1070" x2="   300" y2="  1550" style = "stroke:silver  ;"/>
  <line x1="   300" y1="  1070" x2="   300" y2="  1630" style = "stroke:silver  ;"/>
  <line x1="   300" y1="  1070" x2="   300" y2="  1710" style = "stroke:silver  ;"/>
  <line x1="   300" y1="  1070" x2="   300" y2="  1790" style = "stroke:silver  ;"/>
  <line x1="   300" y1="  1070" x2="   300" y2="  1870" style = "stroke:silver  ;"/>
  <line x1="   300" y1="  1150" x2="   300" y2="  1230" style = "stroke:silver  ;"/>
  <line x1="   300" y1="  1150" x2="   300" y2="  1310" style = "stroke:silver  ;"/>
  <line x1="   300" y1="  1150" x2="   300" y2="  1390" style = "stroke:silver  ;"/>
  <line x1="   300" y1="  1150" x2="   300" y2="  1470" style = "stroke:silver  ;"/>
  <line x1="   300" y1="  1150" x2="   300" y2="  1550" style = "stroke:silver  ;"/>
  <line x1="   300" y1="  1150" x2="   300" y2="  1630" style = "stroke:silver  ;"/>
  <line x1="   300" y1="  1150" x2="   300" y2="  1710" style = "stroke:silver  ;"/>
  <line x1="   300" y1="  1150" x2="   300" y2="  1790" style = "stroke:silver  ;"/>
  <line x1="   300" y1="  1150" x2="   300" y2="  1870" style = "stroke:silver  ;"/>
  <line x1="   300" y1="  1230" x2="   300" y2="  1310" style = "stroke:silver  ;"/>
  <line x1="   300" y1="  1230" x2="   300" y2="  1390" style = "stroke:silver  ;"/>
  <line x1="   300" y1="  1230" x2="   300" y2="  1470" style = "stroke:silver  ;"/>
  <line x1="   300" y1="  1230" x2="   300" y2="  1550" style = "stroke:silver  ;"/>
  <line x1="   300" y1="  1230" x2="   300" y2="  1630" style = "stroke:silver  ;"/>
  <line x1="   300" y1="  1230" x2="   300" y2="  1710" style = "stroke:silver  ;"/>
  <line x1="   300" y1="  1230" x2="   300" y2="  1790" style = "stroke:silver  ;"/>
  <line x1="   300" y1="  1230" x2="   300" y2="  1870" style = "stroke:silver  ;"/>
  <line x1="   300" y1="  1310" x2="   300" y2="  1390" style = "stroke:silver  ;"/>
  <line x1="   300" y1="  1310" x2="   300" y2="  1470" style = "stroke:silver  ;"/>
  <line x1="   300" y1="  1310" x2="   300" y2="  1550" style = "stroke:silver  ;"/>
  <line x1="   300" y1="  1310" x2="   300" y2="  1630" style = "stroke:silver  ;"/>
  <line x1="   300" y1="  1310" x2="   300" y2="  1710" style = "stroke:silver  ;"/>
  <line x1="   300" y1="  1310" x2="   300" y2="  1790" style = "stroke:silver  ;"/>
  <line x1="   300" y1="  1310" x2="   300" y2="  1870" style = "stroke:silver  ;"/>
  <line x1="   300" y1="  1390" x2="   300" y2="  1470" style = "stroke:silver  ;"/>
  <line x1="   300" y1="  1390" x2="   300" y2="  1550" style = "stroke:silver  ;"/>
  <line x1="   300" y1="  1390" x2="   300" y2="  1630" style = "stroke:silver  ;"/>
  <line x1="   300" y1="  1390" x2="   300" y2="  1710" style = "stroke:silver  ;"/>
  <line x1="   300" y1="  1390" x2="   300" y2="  1790" style = "stroke:silver  ;"/>
  <line x1="   300" y1="  1390" x2="   300" y2="  1870" style = "stroke:silver  ;"/>
  <line x1="   300" y1="  1470" x2="   300" y2="  1550" style = "stroke:silver  ;"/>
  <line x1="   300" y1="  1470" x2="   300" y2="  1630" style = "stroke:silver  ;"/>
  <line x1="   300" y1="  1470" x2="   300" y2="  1710" style = "stroke:silver  ;"/>
  <line x1="   300" y1="  1470" x2="   300" y2="  1790" style = "stroke:silver  ;"/>
  <line x1="   300" y1="  1470" x2="   300" y2="  1870" style = "stroke:silver  ;"/>
  <line x1="   300" y1="  1550" x2="   300" y2="  1630" style = "stroke:silver  ;"/>
  <line x1="   300" y1="  1550" x2="   300" y2="  1710" style = "stroke:silver  ;"/>
  <line x1="   300" y1="  1550" x2="   300" y2="  1790" style = "stroke:silver  ;"/>
  <line x1="   300" y1="  1550" x2="   300" y2="  1870" style = "stroke:silver  ;"/>
  <line x1="   300" y1="  1630" x2="   300" y2="  1710" style = "stroke:silver  ;"/>
  <line x1="   300" y1="  1630" x2="   300" y2="  1790" style = "stroke:silver  ;"/>
  <line x1="   300" y1="  1630" x2="   300" y2="  1870" style = "stroke:silver  ;"/>
  <line x1="   300" y1="  1710" x2="   300" y2="  1790" style = "stroke:silver  ;"/>
  <line x1="   300" y1="  1710" x2="   300" y2="  1870" style = "stroke:silver  ;"/>
  <line x1="   300" y1="  1790" x2="   300" y2="  1870" style = "stroke:silver  ;"/>
  <rect x="  1700" y="    20" width="   200" height="    20" style = "fill:chartreuse; stroke: Black;"/>     1
  <text x="  1702" y="    33">01_A1</text>
  <rect x="   200" y="   980" width="   200" height="    20" style = "fill:snow; stroke: Black;"/>    13
  <text x="   202" y="   993">OutdoorAir:NodeList</text>
  <rect x="   200" y="  1060" width="   200" height="    20" style = "fill:snow; stroke: Black;"/>    14
  <text x="   202" y="  1073">OutdoorAir:NodeList</text>
  <rect x="   200" y="  1140" width="   200" height="    20" style = "fill:snow; stroke: Black;"/>    15
  <text x="   202" y="  1153">OutdoorAir:NodeList</text>
  <rect x="   200" y="  1220" width="   200" height="    20" style = "fill:snow; stroke: Black;"/>    16
  <text x="   202" y="  1233">OutdoorAir:NodeList</text>
  <rect x="   200" y="  1300" width="   200" height="    20" style = "fill:snow; stroke: Black;"/>    17
  <text x="   202" y="  1313">OutdoorAir:NodeList</text>
  <rect x="   200" y="  1380" width="   200" height="    20" style = "fill:snow; stroke: Black;"/>    18
  <text x="   202" y="  1393">OutdoorAir:NodeList</text>
  <rect x="   200" y="  1460" width="   200" height="    20" style = "fill:snow; stroke: Black;"/>    19
  <text x="   202" y="  1473">OutdoorAir:NodeList</text>
  <rect x="   200" y="  1540" width="   200" height="    20" style = "fill:snow; stroke: Black;"/>    20
  <text x="   202" y="  1553">OutdoorAir:NodeList</text>
  <rect x="   200" y="  1620" width="   200" height="    20" style = "fill:snow; stroke: Black;"/>    21
  <text x="   202" y="  1633">OutdoorAir:NodeList</text>
  <rect x="   200" y="  1700" width="   200" height="    20" style = "fill:snow; stroke: Black;"/>    22
  <text x="   202" y="  1713">OutdoorAir:NodeList</text>
  <rect x="   200" y="  1780" width="   200" height="    20" style = "fill:snow; stroke: Black;"/>    23
  <text x="   202" y="  1793">OutdoorAir:NodeList</text>
  <rect x="   200" y="  1860" width="   200" height="    20" style = "fill:snow; stroke: Black;"/>    24
  <text x="   202" y="  1873">OutdoorAir:NodeList</text>
  <rect x="  1450" y="    20" width="   200" height="    20" style = "fill:wheat; stroke: Black;"/>    26
  <text x="  1452" y="    33">AIR LOOP HVAC ZONE SPLITTER 1</text>
  <rect x="  1450" y="   100" width="   200" height="    20" style = "fill:wheat; stroke: Black;"/>    27
  <text x="  1452" y="   113">AIR LOOP HVAC ZONE SPLITTER 10</text>
  <rect x="  1450" y="   180" width="   200" height="    20" style = "fill:wheat; stroke: Black;"/>    28
  <text x="  1452" y="   193">AIR LOOP HVAC ZONE SPLITTER 11</text>
  <rect x="  1450" y="   260" width="   200" height="    20" style = "fill:wheat; stroke: Black;"/>    29
  <text x="  1452" y="   273">AIR LOOP HVAC ZONE SPLITTER 12</text>
  <rect x="  1450" y="   340" width="   200" height="    20" style = "fill:wheat; stroke: Black;"/>    30
  <text x="  1452" y="   353">AIR LOOP HVAC ZONE SPLITTER 2</text>
  <rect x="  1450" y="   420" width="   200" height="    20" style = "fill:wheat; stroke: Black;"/>    31
  <text x="  1452" y="   433">AIR LOOP HVAC ZONE SPLITTER 3</text>
  <rect x="  1450" y="   500" width="   200" height="    20" style = "fill:wheat; stroke: Black;"/>    32
  <text x="  1452" y="   513">AIR LOOP HVAC ZONE SPLITTER 4</text>
  <rect x="  1450" y="   580" width="   200" height="    20" style = "fill:wheat; stroke: Black;"/>    33
  <text x="  1452" y="   593">AIR LOOP HVAC ZONE SPLITTER 5</text>
  <rect x="  1450" y="   660" width="   200" height="    20" style = "fill:wheat; stroke: Black;"/>    34
  <text x="  1452" y="   673">AIR LOOP HVAC ZONE SPLITTER 6</text>
  <rect x="  1450" y="   740" width="   200" height="    20" style = "fill:wheat; stroke: Black;"/>    35
  <text x="  1452" y="   753">AIR LOOP HVAC ZONE SPLITTER 7</text>
  <rect x="  1450" y="   820" width="   200" height="    20" style = "fill:wheat; stroke: Black;"/>    36
  <text x="  1452" y="   833">AIR LOOP HVAC ZONE SPLITTER 8</text>
  <rect x="  1450" y="   900" width="   200" height="    20" style = "fill:wheat; stroke: Black;"/>    37
  <text x="  1452" y="   913">AIR LOOP HVAC ZONE SPLITTER 9</text>
  <rect x="  1950" y="    20" width="   200" height="    20" style = "fill:wheat; stroke: Black;"/>    38
  <text x="  1952" y="    33">AIR LOOP HVAC ZONE MIXER 1</text>
  <rect x="  1950" y="   100" width="   200" height="    20" style = "fill:wheat; stroke: Black;"/>    39
  <text x="  1952" y="   113">AIR LOOP HVAC ZONE MIXER 10</text>
  <rect x="  1950" y="   180" width="   200" height="    20" style = "fill:wheat; stroke: Black;"/>    40
  <text x="  1952" y="   193">AIR LOOP HVAC ZONE MIXER 11</text>
  <rect x="  1950" y="   260" width="   200" height="    20" style = "fill:wheat; stroke: Black;"/>    41
  <text x="  1952" y="   273">AIR LOOP HVAC ZONE MIXER 12</text>
  <rect x="  1950" y="   340" width="   200" height="    20" style = "fill:wheat; stroke: Black;"/>    42
  <text x="  1952" y="   353">AIR LOOP HVAC ZONE MIXER 2</text>
  <rect x="  1950" y="   420" width="   200" height="    20" style = "fill:wheat; stroke: Black;"/>    43
  <text x="  1952" y="   433">AIR LOOP HVAC ZONE MIXER 3</text>
  <rect x="  1950" y="   500" width="   200" height="    20" style = "fill:wheat; stroke: Black;"/>    44
  <text x="  1952" y="   513">AIR LOOP HVAC ZONE MIXER 4</text>
  <rect x="  1950" y="   580" width="   200" height="    20" style = "fill:wheat; stroke: Black;"/>    45
  <text x="  1952" y="   593">AIR LOOP HVAC ZONE MIXER 5</text>
  <rect x="  1950" y="   660" width="   200" height="    20" style = "fill:wheat; stroke: Black;"/>    46
  <text x="  1952" y="   673">AIR LOOP HVAC ZONE MIXER 6</text>
  <rect x="  1950" y="   740" width="   200" height="    20" style = "fill:wheat; stroke: Black;"/>    47
  <text x="  1952" y="   753">AIR LOOP HVAC ZONE MIXER 7</text>
  <rect x="  1950" y="   820" width="   200" height="    20" style = "fill:wheat; stroke: Black;"/>    48
  <text x="  1952" y="   833">AIR LOOP HVAC ZONE MIXER 8</text>
  <rect x="  1950" y="   900" width="   200" height="    20" style = "fill:wheat; stroke: Black;"/>    49
  <text x="  1952" y="   913">AIR LOOP HVAC ZONE MIXER 9</text>
  <rect x="   200" y="    20" width="   200" height="    20" style = "fill:lawngreen; stroke: Black;"/>    50
  <text x="   202" y="    33">OA SYSTEM OUTDOOR AIR MIXER</text>
  <rect x="   200" y="   100" width="   200" height="    20" style = "fill:lawngreen; stroke: Black;"/>    51
  <text x="   202" y="   113">OA SYSTEM 9 OUTDOOR AIR MIXER</text>
  <rect x="   200" y="   180" width="   200" height="    20" style = "fill:lawngreen; stroke: Black;"/>    52
  <text x="   202" y="   193">OA SYSTEM 10 OUTDOOR AIR MIXER</text>
  <rect x="   200" y="   260" width="   200" height="    20" style = "fill:lawngreen; stroke: Black;"/>    53
  <text x="   202" y="   273">OA SYSTEM 11 OUTDOOR AIR MIXER</text>
  <rect x="   200" y="   340" width="   200" height="    20" style = "fill:lawngreen; stroke: Black;"/>    54
  <text x="   202" y="   353">OA SYSTEM 1 OUTDOOR AIR MIXER</text>
  <rect x="   200" y="   420" width="   200" height="    20" style = "fill:lawngreen; stroke: Black;"/>    55
  <text x="   202" y="   433">OA SYSTEM 2 OUTDOOR AIR MIXER</text>
  <rect x="   200" y="   500" width="   200" height="    20" style = "fill:lawngreen; stroke: Black;"/>    56
  <text x="   202" y="   513">OA SYSTEM 3 OUTDOOR AIR MIXER</text>
  <rect x="   200" y="   580" width="   200" height="    20" style = "fill:lawngreen; stroke: Black;"/>    57
  <text x="   202" y="   593">OA SYSTEM 4 OUTDOOR AIR MIXER</text>
  <rect x="   200" y="   660" width="   200" height="    20" style = "fill:lawngreen; stroke: Black;"/>    58
  <text x="   202" y="   673">OA SYSTEM 5 OUTDOOR AIR MIXER</text>
  <rect x="   200" y="   740" width="   200" height="    20" style = "fill:lawngreen; stroke: Black;"/>    59
  <text x="   202" y="   753">OA SYSTEM 6 OUTDOOR AIR MIXER</text>
  <rect x="   200" y="   820" width="   200" height="    20" style = "fill:lawngreen; stroke: Black;"/>    60
  <text x="   202" y="   833">OA SYSTEM 7 OUTDOOR AIR MIXER</text>
  <rect x="   200" y="   900" width="   200" height="    20" style = "fill:lawngreen; stroke: Black;"/>    61
  <text x="   202" y="   913">OA SYSTEM 8 OUTDOOR AIR MIXER</text>
  <rect x="   450" y="    20" width="   200" height="    20" style = "fill:silver; stroke: Black;"/>    74
  <text x="   452" y="    33">FAN ON OFF 5</text>
  <rect x="   450" y="   100" width="   200" height="    20" style = "fill:silver; stroke: Black;"/>    75
  <text x="   452" y="   113">FAN ON OFF 14</text>
  <rect x="   450" y="   180" width="   200" height="    20" style = "fill:silver; stroke: Black;"/>    76
  <text x="   452" y="   193">FAN ON OFF 15</text>
  <rect x="   450" y="   260" width="   200" height="    20" style = "fill:silver; stroke: Black;"/>    77
  <text x="   452" y="   273">FAN ON OFF 16</text>
  <rect x="   450" y="   340" width="   200" height="    20" style = "fill:silver; stroke: Black;"/>    78
  <text x="   452" y="   353">FAN ON OFF 6</text>
  <rect x="   450" y="   420" width="   200" height="    20" style = "fill:silver; stroke: Black;"/>    79
  <text x="   452" y="   433">FAN ON OFF 7</text>
  <rect x="   450" y="   500" width="   200" height="    20" style = "fill:silver; stroke: Black;"/>    80
  <text x="   452" y="   513">FAN ON OFF 8</text>
  <rect x="   450" y="   580" width="   200" height="    20" style = "fill:silver; stroke: Black;"/>    81
  <text x="   452" y="   593">FAN ON OFF 9</text>
  <rect x="   450" y="   660" width="   200" height="    20" style = "fill:silver; stroke: Black;"/>    82
  <text x="   452" y="   673">FAN ON OFF 10</text>
  <rect x="   450" y="   740" width="   200" height="    20" style = "fill:silver; stroke: Black;"/>    83
  <text x="   452" y="   753">FAN ON OFF 11</text>
  <rect x="   450" y="   820" width="   200" height="    20" style = "fill:silver; stroke: Black;"/>    84
  <text x="   452" y="   833">FAN ON OFF 12</text>
  <rect x="   450" y="   900" width="   200" height="    20" style = "fill:silver; stroke: Black;"/>    85
  <text x="   452" y="   913">FAN ON OFF 13</text>
  <rect x="   700" y="    20" width="   200" height="    20" style = "fill:skyblue; stroke: Black;"/>    86
  <text x="   702" y="    33">1 SPD DX CLG COIL 4</text>
  <rect x="   700" y="   100" width="   200" height="    20" style = "fill:skyblue; stroke: Black;"/>    87
  <text x="   702" y="   113">1 SPD DX CLG COIL 13</text>
  <rect x="   700" y="   180" width="   200" height="    20" style = "fill:skyblue; stroke: Black;"/>    88
  <text x="   702" y="   193">1 SPD DX CLG COIL 14</text>
  <rect x="   700" y="   260" width="   200" height="    20" style = "fill:skyblue; stroke: Black;"/>    89
  <text x="   702" y="   273">1 SPD DX CLG COIL 15</text>
  <rect x="   700" y="   340" width="   200" height="    20" style = "fill:skyblue; stroke: Black;"/>    90
  <text x="   702" y="   353">1 SPD DX CLG COIL 5</text>
  <rect x="   700" y="   420" width="   200" height="    20" style = "fill:skyblue; stroke: Black;"/>    91
  <text x="   702" y="   433">1 SPD DX CLG COIL 6</text>
  <rect x="   700" y="   500" width="   200" height="    20" style = "fill:skyblue; stroke: Black;"/>    92
  <text x="   702" y="   513">1 SPD DX CLG COIL 7</text>
  <rect x="   700" y="   580" width="   200" height="    20" style = "fill:skyblue; stroke: Black;"/>    93
  <text x="   702" y="   593">1 SPD DX CLG COIL 8</text>
  <rect x="   700" y="   660" width="   200" height="    20" style = "fill:skyblue; stroke: Black;"/>    94
  <text x="   702" y="   673">1 SPD DX CLG COIL 9</text>
  <rect x="   700" y="   740" width="   200" height="    20" style = "fill:skyblue; stroke: Black;"/>    95
  <text x="   702" y="   753">1 SPD DX CLG COIL 10</text>
  <rect x="   700" y="   820" width="   200" height="    20" style = "fill:skyblue; stroke: Black;"/>    96
  <text x="   702" y="   833">1 SPD DX CLG COIL 11</text>
  <rect x="   700" y="   900" width="   200" height="    20" style = "fill:skyblue; stroke: Black;"/>    97
  <text x="   702" y="   913">1 SPD DX CLG COIL 12</text>
  <rect x="   950" y="    20" width="   200" height="    20" style = "fill:salmon; stroke: Black;"/>    98
  <text x="   952" y="    33">1 SPD DX HTG COIL 3</text>
  <rect x="   950" y="   100" width="   200" height="    20" style = "fill:salmon; stroke: Black;"/>    99
  <text x="   952" y="   113">1 SPD DX HTG COIL 12</text>
  <rect x="   950" y="   180" width="   200" height="    20" style = "fill:salmon; stroke: Black;"/>   100
  <text x="   952" y="   193">1 SPD DX HTG COIL 13</text>
  <rect x="   950" y="   260" width="   200" height="    20" style = "fill:salmon; stroke: Black;"/>   101
  <text x="   952" y="   273">1 SPD DX HTG COIL 14</text>
  <rect x="   950" y="   340" width="   200" height="    20" style = "fill:salmon; stroke: Black;"/>   102
  <text x="   952" y="   353">1 SPD DX HTG COIL 4</text>
  <rect x="   950" y="   420" width="   200" height="    20" style = "fill:salmon; stroke: Black;"/>   103
  <text x="   952" y="   433">1 SPD DX HTG COIL 5</text>
  <rect x="   950" y="   500" width="   200" height="    20" style = "fill:salmon; stroke: Black;"/>   104
  <text x="   952" y="   513">1 SPD DX HTG COIL 6</text>
  <rect x="   950" y="   580" width="   200" height="    20" style = "fill:salmon; stroke: Black;"/>   105
  <text x="   952" y="   593">1 SPD DX HTG COIL 7</text>
  <rect x="   950" y="   660" width="   200" height="    20" style = "fill:salmon; stroke: Black;"/>   106
  <text x="   952" y="   673">1 SPD DX HTG COIL 8</text>
  <rect x="   950" y="   740" width="   200" height="    20" style = "fill:salmon; stroke: Black;"/>   107
  <text x="   952" y="   753">1 SPD DX HTG COIL 9</text>
  <rect x="   950" y="   820" width="   200" height="    20" style = "fill:salmon; stroke: Black;"/>   108
  <text x="   952" y="   833">1 SPD DX HTG COIL 10</text>
  <rect x="   950" y="   900" width="   200" height="    20" style = "fill:salmon; stroke: Black;"/>   109
  <text x="   952" y="   913">1 SPD DX HTG COIL 11</text>
  <rect x="  1200" y="    20" width="   200" height="    20" style = "fill:salmon; stroke: Black;"/>   110
  <text x="  1202" y="    33">ELEC HTG COIL 5</text>
  <rect x="  1200" y="   100" width="   200" height="    20" style = "fill:salmon; stroke: Black;"/>   111
  <text x="  1202" y="   113">ELEC HTG COIL 14</text>
  <rect x="  1200" y="   180" width="   200" height="    20" style = "fill:salmon; stroke: Black;"/>   112
  <text x="  1202" y="   193">ELEC HTG COIL 15</text>
  <rect x="  1200" y="   260" width="   200" height="    20" style = "fill:salmon; stroke: Black;"/>   113
  <text x="  1202" y="   273">ELEC HTG COIL 16</text>
  <rect x="  1200" y="   340" width="   200" height="    20" style = "fill:salmon; stroke: Black;"/>   114
  <text x="  1202" y="   353">ELEC HTG COIL 6</text>
  <rect x="  1200" y="   420" width="   200" height="    20" style = "fill:salmon; stroke: Black;"/>   115
  <text x="  1202" y="   433">ELEC HTG COIL 7</text>
  <rect x="  1200" y="   500" width="   200" height="    20" style = "fill:salmon; stroke: Black;"/>   116
  <text x="  1202" y="   513">ELEC HTG COIL 8</text>
  <rect x="  1200" y="   580" width="   200" height="    20" style = "fill:salmon; stroke: Black;"/>   117
  <text x="  1202" y="   593">ELEC HTG COIL 9</text>
  <rect x="  1200" y="   660" width="   200" height="    20" style = "fill:salmon; stroke: Black;"/>   118
  <text x="  1202" y="   673">ELEC HTG COIL 10</text>
  <rect x="  1200" y="   740" width="   200" height="    20" style = "fill:salmon; stroke: Black;"/>   119
  <text x="  1202" y="   753">ELEC HTG COIL 11</text>
  <rect x="  1200" y="   820" width="   200" height="    20" style = "fill:salmon; stroke: Black;"/>   120
  <text x="  1202" y="   833">ELEC HTG COIL 12</text>
  <rect x="  1200" y="   900" width="   200" height="    20" style = "fill:salmon; stroke: Black;"/>   121
  <text x="  1202" y="   913">ELEC HTG COIL 13</text>
  <rect x="  1700" y="   340" width="   200" height="    20" style = "fill:chartreuse; stroke: Black;"/>   122
  <text x="  1702" y="   353">01_A2</text>
  <rect x="  1700" y="   420" width="   200" height="    20" style = "fill:chartreuse; stroke: Black;"/>   123
  <text x="  1702" y="   433">01_B2</text>
  <rect x="  1700" y="   500" width="   200" height="    20" style = "fill:chartreuse; stroke: Black;"/>   124
  <text x="  1702" y="   513">01_C1</text>
  <rect x="  1700" y="   580" width="   200" height="    20" style = "fill:chartreuse; stroke: Black;"/>   125
  <text x="  1702" y="   593">02_A1</text>
  <rect x="  1700" y="   660" width="   200" height="    20" style = "fill:chartreuse; stroke: Black;"/>   126
  <text x="  1702" y="   673">02_A2</text>
  <rect x="  1700" y="   740" width="   200" height="    20" style = "fill:chartreuse; stroke: Black;"/>   127
  <text x="  1702" y="   753">02_B2</text>
  <rect x="  1700" y="   820" width="   200" height="    20" style = "fill:chartreuse; stroke: Black;"/>   128
  <text x="  1702" y="   833">02_C1</text>
  <rect x="  1700" y="   900" width="   200" height="    20" style = "fill:chartreuse; stroke: Black;"/>   129
  <text x="  1702" y="   913">03_A1</text>
  <rect x="  1700" y="   100" width="   200" height="    20" style = "fill:chartreuse; stroke: Black;"/>   130
  <text x="  1702" y="   113">03_A2</text>
  <rect x="  1700" y="   180" width="   200" height="    20" style = "fill:chartreuse; stroke: Black;"/>   131
  <text x="  1702" y="   193">03_B2</text>
  <rect x="  1700" y="   260" width="   200" height="    20" style = "fill:chartreuse; stroke: Black;"/>   132
  <text x="  1702" y="   273">03_C1</text>
  <line x1="  1650" y1="    30" x2="  1700" y2="    30" style = "stroke: Black;"/>
  <line x1="  1650" y1="   110" x2="  1700" y2="   110" style = "stroke: Black;"/>
  <line x1="  1650" y1="   190" x2="  1700" y2="   190" style = "stroke: Black;"/>
  <line x1="  1650" y1="   270" x2="  1700" y2="   270" style = "stroke: Black;"/>
  <line x1="  1650" y1="   350" x2="  1700" y2="   350" style = "stroke: Black;"/>
  <line x1="  1650" y1="   430" x2="  1700" y2="   430" style = "stroke: Black;"/>
  <line x1="  1650" y1="   510" x2="  1700" y2="   510" style = "stroke: Black;"/>
  <line x1="  1650" y1="   590" x2="  1700" y2="   590" style = "stroke: Black;"/>
  <line x1="  1650" y1="   670" x2="  1700" y2="   670" style = "stroke: Black;"/>
  <line x1="  1650" y1="   750" x2="  1700" y2="   750" style = "stroke: Black;"/>
  <line x1="  1650" y1="   830" x2="  1700" y2="   830" style = "stroke: Black;"/>
  <line x1="  1650" y1="   910" x2="  1700" y2="   910" style = "stroke: Black;"/>
  <line x1="   400" y1="    30" x2="   450" y2="    30" style = "stroke: Black;"/>
  <line x1="   400" y1="   110" x2="   450" y2="   110" style = "stroke: Black;"/>
  <line x1="   400" y1="   190" x2="   450" y2="   190" style = "stroke: Black;"/>
  <line x1="   400" y1="   270" x2="   450" y2="   270" style = "stroke: Black;"/>
  <line x1="   400" y1="   350" x2="   450" y2="   350" style = "stroke: Black;"/>
  <line x1="   400" y1="   430" x2="   450" y2="   430" style = "stroke: Black;"/>
  <line x1="   400" y1="   510" x2="   450" y2="   510" style = "stroke: Black;"/>
  <line x1="   400" y1="   590" x2="   450" y2="   590" style = "stroke: Black;"/>
  <line x1="   400" y1="   670" x2="   450" y2="   670" style = "stroke: Black;"/>
  <line x1="   400" y1="   750" x2="   450" y2="   750" style = "stroke: Black;"/>
  <line x1="   400" y1="   830" x2="   450" y2="   830" style = "stroke: Black;"/>
  <line x1="   400" y1="   910" x2="   450" y2="   910" style = "stroke: Black;"/>
  <line x1="   650" y1="    30" x2="   700" y2="    30" style = "stroke: Black;"/>
  <line x1="   650" y1="   110" x2="   700" y2="   110" style = "stroke: Black;"/>
  <line x1="   650" y1="   190" x2="   700" y2="   190" style = "stroke: Black;"/>
  <line x1="   650" y1="   270" x2="   700" y2="   270" style = "stroke: Black;"/>
  <line x1="   650" y1="   350" x2="   700" y2="   350" style = "stroke: Black;"/>
  <line x1="   650" y1="   430" x2="   700" y2="   430" style = "stroke: Black;"/>
  <line x1="   650" y1="   510" x2="   700" y2="   510" style = "stroke: Black;"/>
  <line x1="   650" y1="   590" x2="   700" y2="   590" style = "stroke: Black;"/>
  <line x1="   650" y1="   670" x2="   700" y2="   670" style = "stroke: Black;"/>
  <line x1="   650" y1="   750" x2="   700" y2="   750" style = "stroke: Black;"/>
  <line x1="   650" y1="   830" x2="   700" y2="   830" style = "stroke: Black;"/>
  <line x1="   650" y1="   910" x2="   700" y2="   910" style = "stroke: Black;"/>
  <line x1="   900" y1="    30" x2="   950" y2="    30" style = "stroke: Black;"/>
  <line x1="   900" y1="   110" x2="   950" y2="   110" style = "stroke: Black;"/>
  <line x1="   900" y1="   190" x2="   950" y2="   190" style = "stroke: Black;"/>
  <line x1="   900" y1="   270" x2="   950" y2="   270" style = "stroke: Black;"/>
  <line x1="   900" y1="   350" x2="   950" y2="   350" style = "stroke: Black;"/>
  <line x1="   900" y1="   430" x2="   950" y2="   430" style = "stroke: Black;"/>
  <line x1="   900" y1="   510" x2="   950" y2="   510" style = "stroke: Black;"/>
  <line x1="   900" y1="   590" x2="   950" y2="   590" style = "stroke: Black;"/>
  <line x1="   900" y1="   670" x2="   950" y2="   670" style = "stroke: Black;"/>
  <line x1="   900" y1="   750" x2="   950" y2="   750" style = "stroke: Black;"/>
  <line x1="   900" y1="   830" x2="   950" y2="   830" style = "stroke: Black;"/>
  <line x1="   900" y1="   910" x2="   950" y2="   910" style = "stroke: Black;"/>
  <line x1="  1150" y1="    30" x2="  1200" y2="    30" style = "stroke: Black;"/>
  <line x1="  1150" y1="   110" x2="  1200" y2="   110" style = "stroke: Black;"/>
  <line x1="  1150" y1="   190" x2="  1200" y2="   190" style = "stroke: Black;"/>
  <line x1="  1150" y1="   270" x2="  1200" y2="   270" style = "stroke: Black;"/>
  <line x1="  1150" y1="   350" x2="  1200" y2="   350" style = "stroke: Black;"/>
  <line x1="  1150" y1="   430" x2="  1200" y2="   430" style = "stroke: Black;"/>
  <line x1="  1150" y1="   510" x2="  1200" y2="   510" style = "stroke: Black;"/>
  <line x1="  1150" y1="   590" x2="  1200" y2="   590" style = "stroke: Black;"/>
  <line x1="  1150" y1="   670" x2="  1200" y2="   670" style = "stroke: Black;"/>
  <line x1="  1150" y1="   750" x2="  1200" y2="   750" style = "stroke: Black;"/>
  <line x1="  1150" y1="   830" x2="  1200" y2="   830" style = "stroke: Black;"/>
  <line x1="  1150" y1="   910" x2="  1200" y2="   910" style = "stroke: Black;"/>
  <line x1="  1400" y1="    30" x2="  1450" y2="    30" style = "stroke: Black;"/>
  <line x1="  1400" y1="   110" x2="  1450" y2="   110" style = "stroke: Black;"/>
  <line x1="  1400" y1="   190" x2="  1450" y2="   190" style = "stroke: Black;"/>
  <line x1="  1400" y1="   270" x2="  1450" y2="   270" style = "stroke: Black;"/>
  <line x1="  1400" y1="   350" x2="  1450" y2="   350" style = "stroke: Black;"/>
  <line x1="  1400" y1="   430" x2="  1450" y2="   430" style = "stroke: Black;"/>
  <line x1="  1400" y1="   510" x2="  1450" y2="   510" style = "stroke: Black;"/>
  <line x1="  1400" y1="   590" x2="  1450" y2="   590" style = "stroke: Black;"/>
  <line x1="  1400" y1="   670" x2="  1450" y2="   670" style = "stroke: Black;"/>
  <line x1="  1400" y1="   750" x2="  1450" y2="   750" style = "stroke: Black;"/>
  <line x1="  1400" y1="   830" x2="  1450" y2="   830" style = "stroke: Black;"/>
  <line x1="  1400" y1="   910" x2="  1450" y2="   910" style = "stroke: Black;"/>
  <line x1="  1900" y1="    30" x2="  1950" y2="    30" style = "stroke: Black;"/>
  <line x1="  1900" y1="   350" x2="  1950" y2="   350" style = "stroke: Black;"/>
  <line x1="  1900" y1="   430" x2="  1950" y2="   430" style = "stroke: Black;"/>
  <line x1="  1900" y1="   510" x2="  1950" y2="   510" style = "stroke: Black;"/>
  <line x1="  1900" y1="   590" x2="  1950" y2="   590" style = "stroke: Black;"/>
  <line x1="  1900" y1="   670" x2="  1950" y2="   670" style = "stroke: Black;"/>
  <line x1="  1900" y1="   750" x2="  1950" y2="   750" style = "stroke: Black;"/>
  <line x1="  1900" y1="   830" x2="  1950" y2="   830" style = "stroke: Black;"/>
  <line x1="  1900" y1="   910" x2="  1950" y2="   910" style = "stroke: Black;"/>
  <line x1="  1900" y1="   110" x2="  1950" y2="   110" style = "stroke: Black;"/>
  <line x1="  1900" y1="   190" x2="  1950" y2="   190" style = "stroke: Black;"/>
  <line x1="  1900" y1="   270" x2="  1950" y2="   270" style = "stroke: Black;"/>
  <line x1="   200" y1="    30" x2="   175" y2="    30" style = "stroke: Black;"/>
  <line x1="   175" y1="    30" x2="   175" y2="     0" style = "stroke: Black;"/>
  <line x1="   175" y1="     0" x2="  2175" y2="     0" style = "stroke: Black;"/>
  <line x1="  2175" y1="     0" x2="  2175" y2="    30" style = "stroke: Black;"/>
  <line x1="  2175" y1="    30" x2="  2150" y2="    30" style = "stroke: Black;"/>
  <line x1="   200" y1="   110" x2="   175" y2="   110" style = "stroke: Black;"/>
  <line x1="   175" y1="   110" x2="   175" y2="    80" style = "stroke: Black;"/>
  <line x1="   175" y1="    80" x2="  2175" y2="    80" style = "stroke: Black;"/>
  <line x1="  2175" y1="    80" x2="  2175" y2="   110" style = "stroke: Black;"/>
  <line x1="  2175" y1="   110" x2="  2150" y2="   110" style = "stroke: Black;"/>
  <line x1="   200" y1="   190" x2="   175" y2="   190" style = "stroke: Black;"/>
  <line x1="   175" y1="   190" x2="   175" y2="   160" style = "stroke: Black;"/>
  <line x1="   175" y1="   160" x2="  2175" y2="   160" style = "stroke: Black;"/>
  <line x1="  2175" y1="   160" x2="  2175" y2="   190" style = "stroke: Black;"/>
  <line x1="  2175" y1="   190" x2="  2150" y2="   190" style = "stroke: Black;"/>
  <line x1="   200" y1="   270" x2="   175" y2="   270" style = "stroke: Black;"/>
  <line x1="   175" y1="   270" x2="   175" y2="   240" style = "stroke: Black;"/>
  <line x1="   175" y1="   240" x2="  2175" y2="   240" style = "stroke: Black;"/>
  <line x1="  2175" y1="   240" x2="  2175" y2="   270" style = "stroke: Black;"/>
  <line x1="  2175" y1="   270" x2="  2150" y2="   270" style = "stroke: Black;"/>
  <line x1="   200" y1="   350" x2="   175" y2="   350" style = "stroke: Black;"/>
  <line x1="   175" y1="   350" x2="   175" y2="   320" style = "stroke: Black;"/>
  <line x1="   175" y1="   320" x2="  2175" y2="   320" style = "stroke: Black;"/>
  <line x1="  2175" y1="   320" x2="  2175" y2="   350" style = "stroke: Black;"/>
  <line x1="  2175" y1="   350" x2="  2150" y2="   350" style = "stroke: Black;"/>
  <line x1="   200" y1="   430" x2="   175" y2="   430" style = "stroke: Black;"/>
  <line x1="   175" y1="   430" x2="   175" y2="   400" style = "stroke: Black;"/>
  <line x1="   175" y1="   400" x2="  2175" y2="   400" style = "stroke: Black;"/>
  <line x1="  2175" y1="   400" x2="  2175" y2="   430" style = "stroke: Black;"/>
  <line x1="  2175" y1="   430" x2="  2150" y2="   430" style = "stroke: Black;"/>
  <line x1="   200" y1="   510" x2="   175" y2="   510" style = "stroke: Black;"/>
  <line x1="   175" y1="   510" x2="   175" y2="   480" style = "stroke: Black;"/>
  <line x1="   175" y1="   480" x2="  2175" y2="   480" style = "stroke: Black;"/>
  <line x1="  2175" y1="   480" x2="  2175" y2="   510" style = "stroke: Black;"/>
  <line x1="  2175" y1="   510" x2="  2150" y2="   510" style = "stroke: Black;"/>
  <line x1="   200" y1="   590" x2="   175" y2="   590" style = "stroke: Black;"/>
  <line x1="   175" y1="   590" x2="   175" y2="   560" style = "stroke: Black;"/>
  <line x1="   175" y1="   560" x2="  2175" y2="   560" style = "stroke: Black;"/>
  <line x1="  2175" y1="   560" x2="  2175" y2="   590" style = "stroke: Black;"/>
  <line x1="  2175" y1="   590" x2="  2150" y2="   590" style = "stroke: Black;"/>
  <line x1="   200" y1="   670" x2="   175" y2="   670" style = "stroke: Black;"/>
  <line x1="   175" y1="   670" x2="   175" y2="   640" style = "stroke: Black;"/>
  <line x1="   175" y1="   640" x2="  2175" y2="   640" style = "stroke: Black;"/>
  <line x1="  2175" y1="   640" x2="  2175" y2="   670" style = "stroke: Black;"/>
  <line x1="  2175" y1="   670" x2="  2150" y2="   670" style = "stroke: Black;"/>
  <line x1="   200" y1="   750" x2="   175" y2="   750" style = "stroke: Black;"/>
  <line x1="   175" y1="   750" x2="   175" y2="   720" style = "stroke: Black;"/>
  <line x1="   175" y1="   720" x2="  2175" y2="   720" style = "stroke: Black;"/>
  <line x1="  2175" y1="   720" x2="  2175" y2="   750" style = "stroke: Black;"/>
  <line x1="  2175" y1="   750" x2="  2150" y2="   750" style = "stroke: Black;"/>
  <line x1="   200" y1="   830" x2="   175" y2="   830" style = "stroke: Black;"/>
  <line x1="   175" y1="   830" x2="   175" y2="   800" style = "stroke: Black;"/>
  <line x1="   175" y1="   800" x2="  2175" y2="   800" style = "stroke: Black;"/>
  <line x1="  2175" y1="   800" x2="  2175" y2="   830" style = "stroke: Black;"/>
  <line x1="  2175" y1="   830" x2="  2150" y2="   830" style = "stroke: Black;"/>
  <line x1="   200" y1="   910" x2="   175" y2="   910" style = "stroke: Black;"/>
  <line x1="   175" y1="   910" x2="   175" y2="   880" style = "stroke: Black;"/>
  <line x1="   175" y1="   880" x2="  2175" y2="   880" style = "stroke: Black;"/>
  <line x1="  2175" y1="   880" x2="  2175" y2="   910" style = "stroke: Black;"/>
  <line x1="  2175" y1="   910" x2="  2150" y2="   910" style = "stroke: Black;"/>
  <text x="   200" y="  1920">Unused Non-Parent Objects:</text>
  <text x="   220" y="  1940">OutdoorAir:Node</text>
  <text x="   220" y="  1960">OUTDOOR AIR CONTROLLER</text>
  <text x="   220" y="  1980">OUTDOOR AIR CONTROLLER 9</text>
  <text x="   220" y="  2000">OUTDOOR AIR CONTROLLER 10</text>
  <text x="   220" y="  2020">OUTDOOR AIR CONTROLLER 11</text>
  <text x="   220" y="  2040">OUTDOOR AIR CONTROLLER 1</text>
  <text x="   220" y="  2060">OUTDOOR AIR CONTROLLER 2</text>
  <text x="   220" y="  2080">OUTDOOR AIR CONTROLLER 3</text>
  <text x="   220" y="  2100">OUTDOOR AIR CONTROLLER 4</text>
  <text x="   220" y="  2120">OUTDOOR AIR CONTROLLER 5</text>
  <text x="   220" y="  2140">OUTDOOR AIR CONTROLLER 6</text>
  <text x="   220" y="  2160">OUTDOOR AIR CONTROLLER 7</text>
  <text x="   220" y="  2180">OUTDOOR AIR CONTROLLER 8</text>
  <text x="   200" y="  2220">
The following are not supported: objects related to controls, AirTerminal:SingleDuct:Uncontrolled, or ZoneHVAC:IdealLoadsAirSystem</text>
</g>
</svg>
